<svg width="1000" height="1000" viewBox="0 0 1000 1000" fill="none" xmlns="http://www.w3.org/2000/svg">
<path fill-rule="evenodd" clip-rule="evenodd" d="M500 0C776.142 0 1000 223.858 1000 500C1000 776.142 776.142 1000 500 1000C223.858 1000 0 776.142 0 500C0 223.858 223.858 0 500 0ZM225.509 350.509C201.274 394.914 187.5 445.848 187.5 500C187.5 672.589 327.411 812.5 500 812.5C554.151 812.5 605.085 798.725 649.49 774.49L225.509 350.509ZM500 187.5C449.854 187.5 402.466 199.311 360.468 220.304L779.695 639.53C800.687 597.532 812.5 550.146 812.5 500C812.5 327.411 672.589 187.5 500 187.5Z" fill="white"/>
<path d="M527.53 748.5C518.49 749.49 509.304 750 500 750C361.929 750 250 638.071 250 500C250 490.695 250.509 481.51 251.499 472.469L527.53 748.5Z" fill="white"/>
<path d="M500 250C638.071 250 750 361.929 750 500C750 509.304 749.49 518.488 748.5 527.528L472.471 251.499C481.511 250.509 490.696 250 500 250Z" fill="white"/>
</svg>
