<svg width="1001" height="1257" viewBox="0 0 1001 1257" fill="none" xmlns="http://www.w3.org/2000/svg">
<path d="M34.925 1256.2C29.425 1256.2 25.2083 1254.73 22.275 1251.8C19.3417 1248.68 17.875 1244.28 17.875 1238.6V1134.65C17.875 1128.97 19.3417 1124.66 22.275 1121.72C25.2083 1118.79 29.3333 1117.32 34.65 1117.32C39.9667 1117.32 44.0917 1118.79 47.025 1121.72C49.9583 1124.66 51.425 1128.97 51.425 1134.65V1153.35L48.4 1146.47C52.4333 1136.76 58.6667 1129.42 67.1 1124.47C75.7167 1119.34 85.4333 1116.77 96.25 1116.77C107.067 1116.77 115.958 1118.79 122.925 1122.82C129.892 1126.86 135.117 1133 138.6 1141.25C142.083 1149.32 143.825 1159.58 143.825 1172.05V1238.6C143.825 1244.28 142.358 1248.68 139.425 1251.8C136.492 1254.73 132.275 1256.2 126.775 1256.2C121.275 1256.2 116.967 1254.73 113.85 1251.8C110.917 1248.68 109.45 1244.28 109.45 1238.6V1173.7C109.45 1163.25 107.433 1155.64 103.4 1150.87C99.55 1146.11 93.5 1143.72 85.25 1143.72C75.1667 1143.72 67.1 1146.93 61.05 1153.35C55.1833 1159.58 52.25 1167.92 52.25 1178.37V1238.6C52.25 1250.33 46.475 1256.2 34.925 1256.2ZM240.064 1256.75C226.131 1256.75 214.031 1253.91 203.764 1248.22C193.498 1242.54 185.523 1234.47 179.839 1224.02C174.156 1213.39 171.314 1200.92 171.314 1186.62C171.314 1175.81 172.873 1166.18 175.989 1157.75C179.289 1149.13 183.964 1141.8 190.014 1135.75C196.064 1129.52 203.306 1124.84 211.739 1121.72C220.173 1118.42 229.614 1116.77 240.064 1116.77C253.998 1116.77 266.098 1119.62 276.364 1125.3C286.631 1130.98 294.606 1139.05 300.289 1149.5C305.973 1159.95 308.814 1172.32 308.814 1186.62C308.814 1197.44 307.164 1207.16 303.864 1215.77C300.748 1224.39 296.164 1231.82 290.114 1238.05C284.064 1244.1 276.823 1248.77 268.389 1252.07C259.956 1255.19 250.514 1256.75 240.064 1256.75ZM240.064 1230.62C246.848 1230.62 252.806 1228.97 257.939 1225.67C263.073 1222.37 267.014 1217.52 269.764 1211.1C272.698 1204.5 274.164 1196.34 274.164 1186.62C274.164 1171.96 271.048 1161.05 264.814 1153.9C258.581 1146.57 250.331 1142.9 240.064 1142.9C233.281 1142.9 227.323 1144.55 222.189 1147.85C217.056 1150.97 213.023 1155.82 210.089 1162.42C207.339 1168.84 205.964 1176.91 205.964 1186.62C205.964 1201.11 209.081 1212.11 215.314 1219.62C221.548 1226.96 229.798 1230.62 240.064 1230.62ZM397.444 1256.75C385.527 1256.75 375.535 1254.73 367.469 1250.7C359.585 1246.67 353.719 1240.8 349.869 1233.1C346.019 1225.22 344.094 1215.5 344.094 1203.95V1145.37H329.794C325.394 1145.37 322.002 1144.27 319.619 1142.07C317.235 1139.69 316.044 1136.48 316.044 1132.45C316.044 1128.23 317.235 1125.02 319.619 1122.82C322.002 1120.62 325.394 1119.52 329.794 1119.52H344.094V1094.5C344.094 1088.82 345.56 1084.51 348.494 1081.57C351.61 1078.64 355.919 1077.17 361.419 1077.17C366.919 1077.17 371.135 1078.64 374.069 1081.57C377.002 1084.51 378.469 1088.82 378.469 1094.5V1119.52H407.619C412.019 1119.52 415.41 1120.62 417.794 1122.82C420.177 1125.02 421.369 1128.23 421.369 1132.45C421.369 1136.48 420.177 1139.69 417.794 1142.07C415.41 1144.27 412.019 1145.37 407.619 1145.37H378.469V1202.02C378.469 1210.82 380.394 1217.42 384.244 1221.82C388.094 1226.22 394.327 1228.42 402.944 1228.42C406.06 1228.42 408.81 1228.15 411.194 1227.6C413.577 1227.05 415.685 1226.68 417.519 1226.5C419.719 1226.32 421.552 1227.05 423.019 1228.7C424.485 1230.17 425.219 1233.28 425.219 1238.05C425.219 1241.72 424.577 1245.02 423.294 1247.95C422.194 1250.7 420.085 1252.62 416.969 1253.72C414.585 1254.46 411.469 1255.1 407.619 1255.65C403.769 1256.38 400.377 1256.75 397.444 1256.75ZM452.693 1194.05C448.66 1194.05 445.268 1192.77 442.518 1190.2C439.951 1187.45 438.668 1184.15 438.668 1180.3C438.668 1176.27 439.951 1172.97 442.518 1170.4C445.268 1167.83 448.66 1166.55 452.693 1166.55H511.268C515.118 1166.55 518.326 1167.83 520.893 1170.4C523.643 1172.97 525.018 1176.27 525.018 1180.3C525.018 1184.15 523.643 1187.45 520.893 1190.2C518.326 1192.77 515.118 1194.05 511.268 1194.05H452.693ZM629.585 1256.75C614.368 1256.75 601.26 1253.91 590.26 1248.22C579.26 1242.54 570.735 1234.47 564.685 1224.02C558.818 1213.57 555.885 1201.2 555.885 1186.9C555.885 1172.97 558.726 1160.77 564.41 1150.32C570.276 1139.87 578.251 1131.72 588.335 1125.85C598.601 1119.8 610.243 1116.77 623.26 1116.77C632.793 1116.77 641.318 1118.33 648.835 1121.45C656.535 1124.57 663.043 1129.06 668.36 1134.92C673.86 1140.79 677.985 1147.94 680.735 1156.37C683.668 1164.62 685.135 1173.97 685.135 1184.42C685.135 1187.72 683.943 1190.29 681.56 1192.12C679.36 1193.77 676.151 1194.6 671.935 1194.6H583.66V1174.8H660.935L656.535 1178.92C656.535 1170.49 655.251 1163.43 652.685 1157.75C650.301 1152.07 646.726 1147.76 641.96 1144.82C637.376 1141.71 631.601 1140.15 624.635 1140.15C616.935 1140.15 610.335 1141.98 604.835 1145.65C599.518 1149.13 595.393 1154.17 592.46 1160.77C589.71 1167.19 588.335 1174.89 588.335 1183.87V1185.8C588.335 1200.83 591.818 1212.11 598.785 1219.62C605.935 1226.96 616.385 1230.62 630.135 1230.62C634.901 1230.62 640.218 1230.07 646.085 1228.97C652.135 1227.69 657.818 1225.58 663.135 1222.65C666.985 1220.45 670.376 1219.53 673.31 1219.9C676.243 1220.08 678.535 1221.09 680.185 1222.92C682.018 1224.76 683.118 1227.05 683.485 1229.8C683.851 1232.37 683.301 1235.02 681.835 1237.77C680.551 1240.52 678.26 1242.91 674.96 1244.93C668.543 1248.96 661.118 1251.98 652.685 1254C644.435 1255.83 636.735 1256.75 629.585 1256.75ZM729.407 1256.2C723.907 1256.2 719.691 1254.73 716.757 1251.8C713.824 1248.68 712.357 1244.28 712.357 1238.6V1134.65C712.357 1128.97 713.824 1124.66 716.757 1121.72C719.691 1118.79 723.816 1117.32 729.132 1117.32C734.449 1117.32 738.574 1118.79 741.507 1121.72C744.441 1124.66 745.907 1128.97 745.907 1134.65V1153.35L742.882 1146.47C746.916 1136.76 753.149 1129.42 761.582 1124.47C770.199 1119.34 779.916 1116.77 790.732 1116.77C801.549 1116.77 810.441 1118.79 817.407 1122.82C824.374 1126.86 829.599 1133 833.082 1141.25C836.566 1149.32 838.307 1159.58 838.307 1172.05V1238.6C838.307 1244.28 836.841 1248.68 833.907 1251.8C830.974 1254.73 826.757 1256.2 821.257 1256.2C815.757 1256.2 811.449 1254.73 808.332 1251.8C805.399 1248.68 803.932 1244.28 803.932 1238.6V1173.7C803.932 1163.25 801.916 1155.64 797.882 1150.87C794.032 1146.11 787.982 1143.72 779.732 1143.72C769.649 1143.72 761.582 1146.93 755.532 1153.35C749.666 1159.58 746.732 1167.92 746.732 1178.37V1238.6C746.732 1250.33 740.957 1256.2 729.407 1256.2ZM926.329 1256.2C921.746 1256.2 917.712 1255.01 914.229 1252.62C910.929 1250.24 908.179 1246.57 905.979 1241.62L862.254 1140.15C860.604 1136.12 859.962 1132.36 860.329 1128.87C860.879 1125.39 862.529 1122.64 865.279 1120.62C868.212 1118.42 872.154 1117.32 877.104 1117.32C881.321 1117.32 884.712 1118.33 887.279 1120.35C889.846 1122.18 892.137 1125.76 894.154 1131.07L931.279 1223.75H923.029L961.254 1130.8C963.271 1125.67 965.562 1122.18 968.129 1120.35C970.879 1118.33 974.546 1117.32 979.129 1117.32C983.162 1117.32 986.371 1118.42 988.754 1120.62C991.137 1122.64 992.604 1125.39 993.154 1128.87C993.704 1132.17 993.062 1135.84 991.229 1139.87L946.679 1241.62C944.662 1246.57 941.912 1250.24 938.429 1252.62C935.129 1255.01 931.096 1256.2 926.329 1256.2Z" fill="white"/>
<path fill-rule="evenodd" clip-rule="evenodd" d="M501 0C777.142 0 1001 223.858 1001 500C1001 776.142 777.142 1000 501 1000C224.858 1000 1 776.142 1 500C1 223.858 224.858 0 501 0ZM226.509 350.509C202.274 394.914 188.5 445.848 188.5 500C188.5 672.589 328.411 812.5 501 812.5C555.151 812.5 606.085 798.725 650.49 774.49L226.509 350.509ZM501 187.5C450.854 187.5 403.466 199.311 361.468 220.304L780.695 639.53C801.687 597.532 813.5 550.146 813.5 500C813.5 327.411 673.589 187.5 501 187.5Z" fill="white"/>
<path d="M527.53 748.5C518.49 749.49 509.304 750 500 750C361.929 750 250 638.071 250 500C250 490.695 250.509 481.51 251.499 472.469L527.53 748.5Z" fill="white"/>
<path d="M500 250C638.071 250 750 361.929 750 500C750 509.304 749.49 518.488 748.5 527.528L472.471 251.499C481.511 250.509 490.696 250 500 250Z" fill="white"/>
</svg>
