<svg width="1000" height="197" viewBox="0 0 1000 197" fill="none" xmlns="http://www.w3.org/2000/svg">
<path d="M34.925 196.2C29.425 196.2 25.2083 194.733 22.275 191.8C19.3417 188.683 17.875 184.283 17.875 178.6V74.65C17.875 68.9667 19.3417 64.6583 22.275 61.725C25.2083 58.7917 29.3333 57.325 34.65 57.325C39.9667 57.325 44.0917 58.7917 47.025 61.725C49.9583 64.6583 51.425 68.9667 51.425 74.65V93.35L48.4 86.475C52.4333 76.7583 58.6667 69.425 67.1 64.475C75.7167 59.3417 85.4333 56.775 96.25 56.775C107.067 56.775 115.958 58.7917 122.925 62.825C129.892 66.8583 135.117 73 138.6 81.25C142.083 89.3167 143.825 99.5833 143.825 112.05V178.6C143.825 184.283 142.358 188.683 139.425 191.8C136.492 194.733 132.275 196.2 126.775 196.2C121.275 196.2 116.967 194.733 113.85 191.8C110.917 188.683 109.45 184.283 109.45 178.6V113.7C109.45 103.25 107.433 95.6417 103.4 90.875C99.55 86.1083 93.5 83.725 85.25 83.725C75.1667 83.725 67.1 86.9333 61.05 93.35C55.1833 99.5833 52.25 107.925 52.25 118.375V178.6C52.25 190.333 46.475 196.2 34.925 196.2ZM240.064 196.75C226.131 196.75 214.031 193.908 203.764 188.225C193.498 182.542 185.523 174.475 179.839 164.025C174.156 153.392 171.314 140.925 171.314 126.625C171.314 115.808 172.873 106.183 175.989 97.75C179.289 89.1333 183.964 81.8 190.014 75.75C196.064 69.5167 203.306 64.8417 211.739 61.725C220.173 58.425 229.614 56.775 240.064 56.775C253.998 56.775 266.098 59.6167 276.364 65.3C286.631 70.9833 294.606 79.05 300.289 89.5C305.973 99.95 308.814 112.325 308.814 126.625C308.814 137.442 307.164 147.158 303.864 155.775C300.748 164.392 296.164 171.817 290.114 178.05C284.064 184.1 276.823 188.775 268.389 192.075C259.956 195.192 250.514 196.75 240.064 196.75ZM240.064 170.625C246.848 170.625 252.806 168.975 257.939 165.675C263.073 162.375 267.014 157.517 269.764 151.1C272.698 144.5 274.164 136.342 274.164 126.625C274.164 111.958 271.048 101.05 264.814 93.9C258.581 86.5667 250.331 82.9 240.064 82.9C233.281 82.9 227.323 84.55 222.189 87.85C217.056 90.9667 213.023 95.825 210.089 102.425C207.339 108.842 205.964 116.908 205.964 126.625C205.964 141.108 209.081 152.108 215.314 159.625C221.548 166.958 229.798 170.625 240.064 170.625ZM397.444 196.75C385.527 196.75 375.535 194.733 367.469 190.7C359.585 186.667 353.719 180.8 349.869 173.1C346.019 165.217 344.094 155.5 344.094 143.95V85.375H329.794C325.394 85.375 322.002 84.275 319.619 82.075C317.235 79.6917 316.044 76.4833 316.044 72.45C316.044 68.2333 317.235 65.025 319.619 62.825C322.002 60.625 325.394 59.525 329.794 59.525H344.094V34.5C344.094 28.8167 345.56 24.5083 348.494 21.575C351.61 18.6417 355.919 17.175 361.419 17.175C366.919 17.175 371.135 18.6417 374.069 21.575C377.002 24.5083 378.469 28.8167 378.469 34.5V59.525H407.619C412.019 59.525 415.41 60.625 417.794 62.825C420.177 65.025 421.369 68.2333 421.369 72.45C421.369 76.4833 420.177 79.6917 417.794 82.075C415.41 84.275 412.019 85.375 407.619 85.375H378.469V142.025C378.469 150.825 380.394 157.425 384.244 161.825C388.094 166.225 394.327 168.425 402.944 168.425C406.06 168.425 408.81 168.15 411.194 167.6C413.577 167.05 415.685 166.683 417.519 166.5C419.719 166.317 421.552 167.05 423.019 168.7C424.485 170.167 425.219 173.283 425.219 178.05C425.219 181.717 424.577 185.017 423.294 187.95C422.194 190.7 420.085 192.625 416.969 193.725C414.585 194.458 411.469 195.1 407.619 195.65C403.769 196.383 400.377 196.75 397.444 196.75ZM452.693 134.05C448.66 134.05 445.268 132.767 442.518 130.2C439.951 127.45 438.668 124.15 438.668 120.3C438.668 116.267 439.951 112.967 442.518 110.4C445.268 107.833 448.66 106.55 452.693 106.55H511.268C515.118 106.55 518.326 107.833 520.893 110.4C523.643 112.967 525.018 116.267 525.018 120.3C525.018 124.15 523.643 127.45 520.893 130.2C518.326 132.767 515.118 134.05 511.268 134.05H452.693ZM629.585 196.75C614.368 196.75 601.26 193.908 590.26 188.225C579.26 182.542 570.735 174.475 564.685 164.025C558.818 153.575 555.885 141.2 555.885 126.9C555.885 112.967 558.726 100.775 564.41 90.325C570.276 79.875 578.251 71.7167 588.335 65.85C598.601 59.8 610.243 56.775 623.26 56.775C632.793 56.775 641.318 58.3333 648.835 61.45C656.535 64.5667 663.043 69.0583 668.36 74.925C673.86 80.7917 677.985 87.9417 680.735 96.375C683.668 104.625 685.135 113.975 685.135 124.425C685.135 127.725 683.943 130.292 681.56 132.125C679.36 133.775 676.151 134.6 671.935 134.6H583.66V114.8H660.935L656.535 118.925C656.535 110.492 655.251 103.433 652.685 97.75C650.301 92.0667 646.726 87.7583 641.96 84.825C637.376 81.7083 631.601 80.15 624.635 80.15C616.935 80.15 610.335 81.9833 604.835 85.65C599.518 89.1333 595.393 94.175 592.46 100.775C589.71 107.192 588.335 114.892 588.335 123.875V125.8C588.335 140.833 591.818 152.108 598.785 159.625C605.935 166.958 616.385 170.625 630.135 170.625C634.901 170.625 640.218 170.075 646.085 168.975C652.135 167.692 657.818 165.583 663.135 162.65C666.985 160.45 670.376 159.533 673.31 159.9C676.243 160.083 678.535 161.092 680.185 162.925C682.018 164.758 683.118 167.05 683.485 169.8C683.851 172.367 683.301 175.025 681.835 177.775C680.551 180.525 678.26 182.908 674.96 184.925C668.543 188.958 661.118 191.983 652.685 194C644.435 195.833 636.735 196.75 629.585 196.75ZM729.407 196.2C723.907 196.2 719.691 194.733 716.757 191.8C713.824 188.683 712.357 184.283 712.357 178.6V74.65C712.357 68.9667 713.824 64.6583 716.757 61.725C719.691 58.7917 723.816 57.325 729.132 57.325C734.449 57.325 738.574 58.7917 741.507 61.725C744.441 64.6583 745.907 68.9667 745.907 74.65V93.35L742.882 86.475C746.916 76.7583 753.149 69.425 761.582 64.475C770.199 59.3417 779.916 56.775 790.732 56.775C801.549 56.775 810.441 58.7917 817.407 62.825C824.374 66.8583 829.599 73 833.082 81.25C836.566 89.3167 838.307 99.5833 838.307 112.05V178.6C838.307 184.283 836.841 188.683 833.907 191.8C830.974 194.733 826.757 196.2 821.257 196.2C815.757 196.2 811.449 194.733 808.332 191.8C805.399 188.683 803.932 184.283 803.932 178.6V113.7C803.932 103.25 801.916 95.6417 797.882 90.875C794.032 86.1083 787.982 83.725 779.732 83.725C769.649 83.725 761.582 86.9333 755.532 93.35C749.666 99.5833 746.732 107.925 746.732 118.375V178.6C746.732 190.333 740.957 196.2 729.407 196.2ZM926.329 196.2C921.746 196.2 917.712 195.008 914.229 192.625C910.929 190.242 908.179 186.575 905.979 181.625L862.254 80.15C860.604 76.1167 859.962 72.3583 860.329 68.875C860.879 65.3917 862.529 62.6417 865.279 60.625C868.212 58.425 872.154 57.325 877.104 57.325C881.321 57.325 884.712 58.3333 887.279 60.35C889.846 62.1833 892.137 65.7583 894.154 71.075L931.279 163.75H923.029L961.254 70.8C963.271 65.6667 965.562 62.1833 968.129 60.35C970.879 58.3333 974.546 57.325 979.129 57.325C983.162 57.325 986.371 58.425 988.754 60.625C991.137 62.6417 992.604 65.3917 993.154 68.875C993.704 72.175 993.062 75.8417 991.229 79.875L946.679 181.625C944.662 186.575 941.912 190.242 938.429 192.625C935.129 195.008 931.096 196.2 926.329 196.2Z" fill="white"/>
</svg>
